<svg width="17" height="12" viewBox="0 0 17 12" fill="none" xmlns="http://www.w3.org/2000/svg">
<path d="M15.347 0.608473H11.041V1.94784H15.364L15.347 0.608473ZM14.4382 9.82252C14.1116 10.0646 13.7258 10.1874 13.3341 10.174C13.0749 10.2042 12.8128 10.1743 12.5644 10.086C12.3159 9.99774 12.0865 9.85306 11.8903 9.66104C11.5277 9.20117 11.3389 8.60176 11.3638 7.98921H16.9862C17.0267 7.3514 16.978 6.71042 16.8418 6.08941C16.71 5.49859 16.4795 4.941 16.1623 4.44608C15.8431 3.966 15.4308 3.57304 14.9563 3.2967C14.4284 3.00559 13.8462 2.85907 13.2577 2.86924C12.7042 2.86471 12.1555 2.98421 11.644 3.2207C11.1756 3.44155 10.7512 3.76446 10.3955 4.17061C10.0409 4.58487 9.76622 5.07635 9.5887 5.61446C9.3982 6.19537 9.30324 6.81004 9.30842 7.42877C9.29968 8.05628 9.39174 8.68045 9.5802 9.27158C9.74028 9.80688 9.99439 10.301 10.3276 10.7249C10.6723 11.1411 11.096 11.4657 11.5676 11.6748C12.0934 11.8989 12.6526 12.0085 13.2152 11.9978C14.0046 12.0253 14.784 11.7942 15.4574 11.3329C16.1376 10.7922 16.6274 10.0026 16.8418 9.1006H14.9648C14.8643 9.39899 14.6794 9.6525 14.4382 9.82252ZM11.5251 5.90893C11.5912 5.6721 11.7009 5.45338 11.8472 5.26687C11.9935 5.08036 12.1731 4.93019 12.3744 4.82604C12.6411 4.6918 12.9314 4.62685 13.2237 4.63606C13.4349 4.61589 13.6474 4.64704 13.8468 4.72738C14.0462 4.80773 14.2277 4.93535 14.3788 5.10151C14.6674 5.49661 14.8526 5.97332 14.9139 6.47887H11.3892C11.403 6.28583 11.4343 6.09486 11.4827 5.90893H11.5251ZM7.03228 5.45297C7.46454 5.25165 7.84015 4.92346 8.11939 4.50307C8.37607 4.05662 8.50359 3.53259 8.4846 3.00223C8.50124 2.51857 8.41691 2.03723 8.2383 1.59637C8.08823 1.21443 7.84734 0.885869 7.54186 0.646469C7.21798 0.397569 6.85019 0.229142 6.46324 0.15252C6.00531 0.045099 5.53823 -0.00586652 5.07037 0.000536083H0V11.9503H5.18078C5.65358 11.9507 6.1245 11.8837 6.58214 11.7508C7.01592 11.6253 7.42688 11.4164 7.79665 11.1334C8.15484 10.8557 8.4465 10.4839 8.64596 10.0505C8.86671 9.56585 8.97478 9.02683 8.96021 8.48316C8.97629 7.80943 8.80733 7.14638 8.4761 6.58336C8.11989 6.01714 7.59156 5.61533 6.98981 5.45297H7.03228ZM2.35259 2.04283H4.5523C4.75438 2.04255 4.95612 2.06161 5.1553 2.09982C5.33871 2.13022 5.51485 2.20127 5.67338 2.3088C5.82655 2.4057 5.95067 2.55112 6.03009 2.72675C6.12846 2.93737 6.17534 3.1733 6.16598 3.41068C6.18181 3.61514 6.15385 3.82087 6.08444 4.01084C6.01502 4.2008 5.90614 4.36954 5.76681 4.50307C5.46286 4.73678 5.09915 4.85348 4.73065 4.83554H2.35259V2.04283ZM6.46324 9.1101C6.37598 9.30369 6.24403 9.46767 6.08105 9.58505C5.91145 9.70303 5.72457 9.78664 5.529 9.83202C5.31163 9.88644 5.08926 9.91195 4.86654 9.90801H2.31861V6.63085H4.86654C5.30378 6.60944 5.73557 6.74599 6.09804 7.02031C6.26179 7.18467 6.38865 7.38985 6.46832 7.61924C6.548 7.84863 6.57826 8.09578 6.55666 8.34068C6.57963 8.60179 6.54763 8.86529 6.46324 9.1101Z" fill="white"/>
</svg>
