<svg width="14" height="14" viewBox="0 0 14 14" fill="none" xmlns="http://www.w3.org/2000/svg">
<path fill-rule="evenodd" clip-rule="evenodd" d="M7 4.66648C5.71138 4.66648 4.66704 5.71138 4.66704 7C4.66704 8.28862 5.71138 9.33352 7 9.33352C8.28862 9.33352 9.33352 8.28862 9.33352 7C9.33352 5.71138 8.28862 4.66648 7 4.66648ZM11.4252 2.78204C11.366 2.69807 11.2917 2.62522 11.2054 2.56753C11.0673 2.47518 10.9049 2.42585 10.7388 2.42578C10.5161 2.42588 10.3022 2.51437 10.1447 2.67181C9.9872 2.82924 9.89863 3.04275 9.89844 3.26545C9.89837 3.43158 9.94757 3.59401 10.0398 3.73218C10.0431 3.73717 10.0465 3.74213 10.05 3.74704C10.1416 3.87808 10.2688 3.98037 10.4167 4.04171C10.5701 4.10535 10.739 4.12205 10.902 4.08971C11.0649 4.05736 11.2146 3.97742 11.3322 3.85999C11.4497 3.74256 11.5298 3.59292 11.5622 3.42999C11.5947 3.26706 11.5781 3.09815 11.5146 2.94464C11.4908 2.88701 11.4607 2.83252 11.4252 2.78204ZM2.41494 0.367528C2.85964 0.194488 3.36885 0.076328 4.11404 0.042392C4.8608 0.00789604 5.10014 0 7.00084 0C8.90154 0 9.14004 0.00828804 9.88652 0.042392C10.6312 0.075768 11.1401 0.194488 11.5856 0.367528C12.0453 0.546224 12.4361 0.785344 12.8251 1.17494C13.214 1.56453 13.4533 1.95468 13.6325 2.41494C13.8055 2.85964 13.9237 3.36879 13.9576 4.11404C13.9915 4.86041 13.9994 5.09902 13.9994 7C13.9994 8.90098 13.9915 9.13903 13.9576 9.88596C13.9242 10.6312 13.8055 11.1401 13.6325 11.5851C13.4533 12.0453 13.2147 12.4361 12.8251 12.8251C12.4355 13.214 12.0453 13.4533 11.5851 13.6325C11.1401 13.8055 10.6312 13.9237 9.88596 13.9576C9.13959 13.9921 8.90098 14 7 14C5.09902 14 4.8608 13.9915 4.11404 13.9576C3.36885 13.9237 2.86048 13.8055 2.41494 13.6325C1.95412 13.4533 1.56447 13.2139 1.17494 12.8251C0.7854 12.4363 0.546224 12.0453 0.367528 11.5851C0.194488 11.1401 0.076328 10.6312 0.042392 9.88596C0.00789604 9.13959 0 8.90098 0 7C0 5.09902 0.00789604 4.86041 0.042392 4.11404C0.076328 3.36885 0.194488 2.85992 0.367528 2.41494C0.546224 1.95412 0.785344 1.56391 1.17494 1.17494C1.56453 0.78596 1.95468 0.546224 2.41494 0.367528Z" fill="white"/>
</svg>
