<svg width="14" height="14" viewBox="0 0 14 14" fill="none" xmlns="http://www.w3.org/2000/svg">
<path d="M0 1.6262C0 1.15483 0.157656 0.765953 0.472954 0.459578C0.788252 0.153188 1.19815 0 1.70263 0C2.19811 0 2.59899 0.150826 2.90529 0.452507C3.22059 0.763606 3.37824 1.16897 3.37824 1.66862C3.37824 2.12113 3.2251 2.49821 2.9188 2.79989C2.6035 3.11099 2.1891 3.26654 1.67561 3.26654H1.6621C1.16662 3.26654 0.765739 3.11099 0.459441 2.79989C0.153142 2.48879 0 2.09755 0 1.6262ZM0.175669 13.9994V4.55335H3.17555V13.9994H0.175669ZM4.83764 13.9994H7.83752V8.7249C7.83752 8.39494 7.87356 8.1404 7.94563 7.9613C8.07174 7.64077 8.26318 7.36973 8.51993 7.1482C8.77667 6.92665 9.09873 6.81589 9.4861 6.81589C10.4951 6.81589 10.9996 7.52764 10.9996 8.95116V13.9994H13.9994V8.58349C13.9994 7.18826 13.6841 6.13006 13.0535 5.40887C12.4229 4.68769 11.5896 4.3271 10.5536 4.3271C9.39151 4.3271 8.48615 4.85031 7.83752 5.89673V5.92501H7.82401L7.83752 5.89673V4.55335H4.83764C4.85566 4.85502 4.86467 5.79302 4.86467 7.36738C4.86467 8.94172 4.85566 11.1524 4.83764 13.9994Z" fill="white"/>
</svg>
