<svg width="34" height="40" viewBox="0 0 34 40" fill="none" xmlns="http://www.w3.org/2000/svg">
<path d="M34 16C34 30.1699 17 40 17 40C17 40 0 30.1699 0 16C0 7.16344 7.61116 0 17 0C26.3888 0 34 7.16344 34 16Z" fill="#FD1E00"/>
<path d="M16.2464 23.3715L16.4322 18.2643L12.1143 21.0036L11 19.0536L15.55 16.6857L11 14.3179L12.1143 12.3679L16.4322 15.1072L16.2464 10H18.475L18.2893 15.1072L22.6072 12.3679L23.7215 14.3179L19.1715 16.6857L23.7215 19.0536L22.6072 21.0036L18.2893 18.2643L18.475 23.3715H16.2464Z" fill="white"/>
</svg>
